<svg width="261" height="262" viewBox="0 0 261 262" fill="none" xmlns="http://www.w3.org/2000/svg">
<path d="M40.06 192.5L11.034 43.5H234.966L205.94 192.5H40.06Z" stroke="white" stroke-width="5"/>
<path d="M141.111 192.5L126.784 59.5H231.969L206.179 192.5H141.111Z" stroke="white" stroke-width="5"/>
<path d="M201.538 3.00001L176.473 31.4702" stroke="white" stroke-width="5"/>
<line x1="177.5" y1="29" x2="177.5" y2="60" stroke="white" stroke-width="5"/>
<path d="M173 41.5C173 23.5507 136.735 9 92 9C47.2649 9 11 23.5507 11 41.5" stroke="#FCFCFC" stroke-width="5"/>
<path d="M39.0216 246.789L42.3497 230.641H48.8887L42.42 256H36.7481L31.9434 240.039L27.1387 256H21.4903L15.0216 230.641H21.5606L24.8653 246.766L29.5059 230.641H34.4044L39.0216 246.789ZM66.4791 256C66.1666 255.391 65.94 254.633 65.7994 253.727C64.1587 255.555 62.0259 256.469 59.4009 256.469C56.9166 256.469 54.8541 255.75 53.2134 254.312C51.5884 252.875 50.7759 251.062 50.7759 248.875C50.7759 246.188 51.7681 244.125 53.7525 242.688C55.7525 241.25 58.6353 240.523 62.4009 240.508H65.5181V239.055C65.5181 237.883 65.2134 236.945 64.6041 236.242C64.0103 235.539 63.065 235.188 61.7681 235.188C60.6275 235.188 59.7291 235.461 59.0728 236.008C58.4322 236.555 58.1119 237.305 58.1119 238.258H51.3384C51.3384 236.789 51.7916 235.43 52.6978 234.18C53.6041 232.93 54.8853 231.953 56.5416 231.25C58.1978 230.531 60.0572 230.172 62.1197 230.172C65.2447 230.172 67.7212 230.961 69.5494 232.539C71.3931 234.102 72.315 236.305 72.315 239.148V250.141C72.3306 252.547 72.6666 254.367 73.3228 255.602V256H66.4791ZM60.8775 251.289C61.8775 251.289 62.7994 251.07 63.6431 250.633C64.4869 250.18 65.1119 249.578 65.5181 248.828V244.469H62.9869C59.5962 244.469 57.7916 245.641 57.5728 247.984L57.5494 248.383C57.5494 249.227 57.8462 249.922 58.44 250.469C59.0337 251.016 59.8462 251.289 60.8775 251.289ZM85.1475 224.406V230.641H89.4834V235.609H85.1475V248.266C85.1475 249.203 85.3272 249.875 85.6866 250.281C86.0459 250.688 86.7334 250.891 87.7491 250.891C88.4991 250.891 89.1631 250.836 89.7412 250.727V255.859C88.4131 256.266 87.0459 256.469 85.6397 256.469C80.8897 256.469 78.4678 254.07 78.3741 249.273V235.609H74.6709V230.641H78.3741V224.406H85.1475ZM103.324 251.008C104.574 251.008 105.589 250.664 106.371 249.977C107.152 249.289 107.558 248.375 107.589 247.234H113.941C113.925 248.953 113.457 250.531 112.535 251.969C111.613 253.391 110.347 254.5 108.738 255.297C107.144 256.078 105.378 256.469 103.441 256.469C99.8159 256.469 96.9566 255.32 94.8628 253.023C92.7691 250.711 91.7222 247.523 91.7222 243.461V243.016C91.7222 239.109 92.7612 235.992 94.8394 233.664C96.9175 231.336 99.7691 230.172 103.394 230.172C106.566 230.172 109.105 231.078 111.011 232.891C112.933 234.688 113.91 237.086 113.941 240.086H107.589C107.558 238.773 107.152 237.711 106.371 236.898C105.589 236.07 104.558 235.656 103.277 235.656C101.699 235.656 100.503 236.234 99.6909 237.391C98.8941 238.531 98.4956 240.391 98.4956 242.969V243.672C98.4956 246.281 98.8941 248.156 99.6909 249.297C100.488 250.438 101.699 251.008 103.324 251.008ZM123.938 233.406C125.734 231.25 127.992 230.172 130.711 230.172C136.211 230.172 139 233.367 139.078 239.758V256H132.305V239.945C132.305 238.492 131.992 237.422 131.367 236.734C130.742 236.031 129.703 235.68 128.25 235.68C126.266 235.68 124.828 236.445 123.938 237.977V256H117.164V220H123.938V233.406ZM166.559 243.555C166.559 247.617 165.692 250.789 163.957 253.07C162.223 255.336 159.801 256.469 156.692 256.469C153.942 256.469 151.747 255.414 150.106 253.305L149.801 256H143.707V220H150.481V232.914C152.043 231.086 154.098 230.172 156.645 230.172C159.739 230.172 162.161 231.312 163.911 233.594C165.676 235.859 166.559 239.055 166.559 243.18V243.555ZM159.786 243.062C159.786 240.5 159.379 238.633 158.567 237.461C157.754 236.273 156.543 235.68 154.934 235.68C152.778 235.68 151.293 236.562 150.481 238.328V248.336C151.309 250.117 152.809 251.008 154.981 251.008C157.168 251.008 158.606 249.93 159.293 247.773C159.622 246.742 159.786 245.172 159.786 243.062ZM169.22 243.086C169.22 240.57 169.704 238.328 170.673 236.359C171.642 234.391 173.032 232.867 174.845 231.789C176.673 230.711 178.79 230.172 181.196 230.172C184.618 230.172 187.407 231.219 189.563 233.312C191.735 235.406 192.946 238.25 193.196 241.844L193.243 243.578C193.243 247.469 192.157 250.594 189.985 252.953C187.813 255.297 184.899 256.469 181.243 256.469C177.587 256.469 174.665 255.297 172.477 252.953C170.306 250.609 169.22 247.422 169.22 243.391V243.086ZM175.993 243.578C175.993 245.984 176.446 247.828 177.352 249.109C178.259 250.375 179.556 251.008 181.243 251.008C182.884 251.008 184.165 250.383 185.087 249.133C186.009 247.867 186.47 245.852 186.47 243.086C186.47 240.727 186.009 238.898 185.087 237.602C184.165 236.305 182.868 235.656 181.196 235.656C179.54 235.656 178.259 236.305 177.352 237.602C176.446 238.883 175.993 240.875 175.993 243.578ZM195.88 243.086C195.88 240.57 196.365 238.328 197.333 236.359C198.302 234.391 199.693 232.867 201.505 231.789C203.333 230.711 205.451 230.172 207.857 230.172C211.279 230.172 214.068 231.219 216.224 233.312C218.396 235.406 219.607 238.25 219.857 241.844L219.904 243.578C219.904 247.469 218.818 250.594 216.646 252.953C214.474 255.297 211.56 256.469 207.904 256.469C204.247 256.469 201.326 255.297 199.138 252.953C196.966 250.609 195.88 247.422 195.88 243.391V243.086ZM202.654 243.578C202.654 245.984 203.107 247.828 204.013 249.109C204.919 250.375 206.216 251.008 207.904 251.008C209.544 251.008 210.826 250.383 211.747 249.133C212.669 247.867 213.13 245.852 213.13 243.086C213.13 240.727 212.669 238.898 211.747 237.602C210.826 236.305 209.529 235.656 207.857 235.656C206.201 235.656 204.919 236.305 204.013 237.602C203.107 238.883 202.654 240.875 202.654 243.578ZM232.807 245.828L230.369 248.266V256H223.596V220H230.369V239.945L231.682 238.258L238.174 230.641H246.307L237.143 241.211L247.103 256H239.322L232.807 245.828Z" fill="white"/>
</svg>
